<svg xmlns="http://www.w3.org/2000/svg" viewBox="120 90 280 160" role="img" aria-label="Purdue Block P favicon">
  <title>Purdue Block P favicon</title>
  <path fill="#cfb991" d="M269.420013 243.230011L288.26001 198.960007L319.480011 198.960007C364.660004 198.960007 381.809998 180.419998 393.660004 152.559998C398.049988 142.25 405.399994 124.98999 395.660004 110.309998C385.920013 95.630005 365.559998 94.019989 351 94.019989L185.050003 94.019989L161.649994 149.019989L191.649994 149.019989L175 188.240005L144.899994 188.240005L121.489998 243.240005Z"/>
  <path fill="#9d9795" d="M387.190002 115.929993C381.920013 107.929993 370.399994 104.209991 350.980011 104.209991L191.800003 104.209991L177.070007 138.790009L207.070007 138.790009L181.669998 198.440002L151.610001 198.440002L136.880005 233.020004L262.690002 233.020004L277.420013 198.419998L246.899994 198.419998L251 188.779999L319.459991 188.779999C363.459991 188.779999 375.23999 169.779999 384.26001 148.570007C389.119995 137.170013 393.329987 125.25 387.170013 115.929993"/>
  <path fill="#000000" d="M351 109.519989L195.289993 109.519989L185.089996 133.519989L215.089996 133.519989L185.169998 203.770004L155.119995 203.770004L144.899994 227.770004L259.179993 227.770004L269.399994 203.770004L238.889999 203.770004L247.520004 183.5L319.519989 183.5C360.779999 183.5 371.149994 166.019989 379.450012 146.5C387.75 126.980011 392.269989 109.5 351.019989 109.5M311.549988 159.5L257.72998 159.5L268.799988 133.5L322.579987 133.5C332.100006 133.5 335.940002 138.399994 332.480011 146.5C329.019989 154.600006 321.029999 159.5 311.480011 159.5"/>
</svg>
