<?xml version="1.0" encoding="UTF-8"?>
<!-- Generated by Pixelmator Pro 4.0 -->
<svg width="521" height="336" viewBox="0 0 521 336" xmlns="http://www.w3.org/2000/svg">
    <path id="Path" fill="#cfb991" stroke="none" d="M 269.420013 243.230011 L 288.26001 198.960007 L 319.480011 198.960007 C 364.660004 198.960007 381.809998 180.419998 393.660004 152.559998 C 398.049988 142.25 405.399994 124.98999 395.660004 110.309998 C 385.920013 95.630005 365.559998 94.019989 351 94.019989 L 185.050003 94.019989 L 161.649994 149.019989 L 191.649994 149.019989 L 175 188.240005 L 144.899994 188.240005 L 121.489998 243.240005 Z"/>
    <path id="path1" fill="#9d9795" stroke="none" d="M 387.190002 115.929993 C 381.920013 107.929993 370.399994 104.209991 350.980011 104.209991 L 191.800003 104.209991 L 177.070007 138.790009 L 207.070007 138.790009 L 181.669998 198.440002 L 151.610001 198.440002 L 136.880005 233.020004 L 262.690002 233.020004 L 277.420013 198.419998 L 246.899994 198.419998 L 251 188.779999 L 319.459991 188.779999 C 363.459991 188.779999 375.23999 169.779999 384.26001 148.570007 C 389.119995 137.170013 393.329987 125.25 387.170013 115.929993 M 272.299988 138.790009 L 322.579987 138.790009 C 329.51001 138.790009 328.519989 142.26001 327.579987 144.420013 C 325.01001 150.420013 318.829987 154.190002 311.480011 154.190002 L 265.73999 154.190002 Z"/>
    <path id="path2" fill="#000000" stroke="none" d="M 351 109.519989 L 195.289993 109.519989 L 185.089996 133.519989 L 215.089996 133.519989 L 185.169998 203.770004 L 155.119995 203.770004 L 144.899994 227.770004 L 259.179993 227.770004 L 269.399994 203.770004 L 238.889999 203.770004 L 247.520004 183.5 L 319.519989 183.5 C 360.779999 183.5 371.149994 166.019989 379.450012 146.5 C 387.75 126.980011 392.269989 109.5 351.019989 109.5 M 311.549988 159.5 L 257.72998 159.5 L 268.799988 133.5 L 322.579987 133.5 C 332.100006 133.5 335.940002 138.399994 332.480011 146.5 C 329.019989 154.600006 321.029999 159.5 311.480011 159.5"/>
    <path id="path3" fill="#ffffff" stroke="none" visibility="hidden" d="M 9.64 197.87001 L 0.24 195.130005 L 0.24 188.340012 L 37 188.340012 C 60.939999 188.340012 69.769997 195.990005 69.769997 214.059998 C 69.769997 230.970001 60.119999 239.730011 41.200001 239.730011 L 26.309999 239.730011 L 26.309999 266.809998 L 35.84 269.539978 L 35.84 275.849976 L 0 275.849976 L 0 269.539978 L 9.64 266.809998 Z M 26.309999 197.570007 L 26.309999 231.369995 L 43.82 230.079987 C 48.169998 228.079987 52.650002 225.449982 52.650002 214.540009 C 52.650002 206.290009 52.27 197.540009 36.259998 197.540009 Z"/>
    <path id="path4" fill="#ffffff" stroke="none" visibility="hidden" d="M 206.279999 238.589996 L 194.389999 238.589996 L 194.389999 266.809998 L 203.919998 269.539978 L 203.919998 275.849976 L 168.080002 275.849976 L 168.080002 269.539978 L 177.729996 266.809998 L 177.729996 197.87001 L 168.199997 195.130005 L 168.199997 188.340012 L 206.559998 188.340012 C 229.300003 188.340012 237.559998 196.410004 237.559998 211.919983 C 237.559998 223.919983 232.889999 230.139984 222.080002 234.419983 L 238.279999 266.089996 L 248.740005 269.539978 L 248.740005 275.849976 L 224.380005 275.849976 Z M 194.389999 197.590012 L 194.389999 231.019989 L 212.110001 229.829987 C 217.740005 227.040009 220.449997 222.579987 220.449997 213.399994 C 220.449997 203.75 217.330002 197.680008 207.330002 197.680008 Z"/>
    <path id="path5" fill="#ffffff" stroke="none" visibility="hidden" d="M 255.910004 269.539978 L 265.429993 266.929993 L 265.429993 197.87001 L 256.029999 195.130005 L 256.029999 188.340012 L 298.320007 188.340012 C 322.26001 188.340012 336.220001 202.770004 336.220001 231.139984 C 336.220001 263.25 321.73999 275.849976 296.5 275.849976 L 255.910004 275.849976 Z M 282.220001 197.630005 L 282.220001 266.809998 L 294.75 266.809998 C 303.350006 266.809998 318.179993 265.410004 318.179993 233.809998 C 318.179993 208.919983 313.709991 197.610001 294.75 197.610001 Z"/>
    <path id="path6" fill="#ffffff" stroke="none" visibility="hidden" d="M 37 321.449982 C 37 332.089996 30.879999 336.019989 20.799999 336.019989 C 10.72 336.019989 4.57 330.019989 4.57 321.449982 L 4.57 300.119995 L -0 298.690002 L -0 294.690002 L 18.65 294.690002 L 18.65 298.690002 L 14.14 300.119995 L 14.14 321.449982 C 14.14 326.949982 16.25 329.940002 22.25 329.940002 C 25.18 329.940002 30.15 329.029999 30.15 321.169983 L 30.15 300.169983 L 25.59 298.73999 L 25.59 294.73999 L 41.59 294.73999 L 41.59 298.73999 L 37 300.119995 Z"/>
    <path id="path7" fill="#ffffff" stroke="none" visibility="hidden" d="M 69.199997 310.470001 L 69.199997 330.019989 L 73.709999 331.389984 L 73.709999 335.389984 L 58 335.389984 L 58 331.389984 L 62.59 330.019989 L 62.59 302.269989 L 60.59 299.799988 L 57.860001 298.949982 L 57.860001 294.669983 L 68.209999 294.669983 L 88.07 319.669983 L 88.07 300.119995 L 83.5 298.75 L 83.5 294.669983 L 99.239998 294.669983 L 99.239998 298.75 L 94.669998 300.119995 L 94.669998 335.449982 L 89.339996 335.449982 Z"/>
    <path id="path8" fill="#ffffff" stroke="none" visibility="hidden" d="M 133.199997 330.019989 L 137.770004 331.389984 L 137.770004 335.389984 L 119.059998 335.389984 L 119.059998 331.389984 L 123.629997 330.019989 L 123.629997 300.019989 L 119.059998 298.639984 L 119.059998 294.639984 L 137.770004 294.639984 L 137.770004 298.639984 L 133.199997 300.019989 Z"/>
    <path id="path9" fill="#ffffff" stroke="none" visibility="hidden" d="M 385.140015 330.019989 L 389.700012 331.389984 L 389.700012 335.389984 L 371 335.389984 L 371 331.389984 L 375.559998 330.019989 L 375.559998 300.019989 L 371 298.690002 L 371 294.690002 L 389.700012 294.690002 L 389.700012 298.690002 L 385.140015 300.069977 Z"/>
    <path id="path10" fill="#ffffff" stroke="none" visibility="hidden" d="M 180.580002 335.389984 L 171.770004 335.389984 L 158.839996 300.119995 L 154.279999 298.690002 L 154.279999 294.690002 L 174 294.690002 L 174 298.690002 L 169.369995 300.119995 L 177.960007 325.209991 L 186.710007 300.119995 L 182.139999 298.690002 L 182.139999 294.690002 L 198.139999 294.690002 L 198.139999 298.690002 L 193.570007 300.119995 Z"/>
    <path id="path11" fill="#ffffff" stroke="none" visibility="hidden" d="M 217.619995 300.119995 L 213.050003 298.75 L 213.050003 294.669983 L 245.050003 294.669983 L 245.380005 307.25 L 240.270004 307.25 L 237.789993 300.069977 L 227.190002 300.069977 L 227.190002 311.509979 L 237.759995 311.509979 L 237.759995 317.289978 L 227.190002 317.289978 L 227.190002 330.160004 L 238 330.160004 L 241.240005 323.029999 L 246.240005 323.029999 L 245.520004 335.389984 L 213.050003 335.389984 L 213.050003 331.389984 L 217.619995 330.25 Z"/>
    <path id="path12" fill="#ffffff" stroke="none" visibility="hidden" d="M 284.48999 318.769989 L 281 318.769989 L 281 330.019989 L 285.570007 331.389984 L 285.570007 335.389984 L 266.880005 335.389984 L 266.880005 331.389984 L 271.450012 330.019989 L 271.450012 300.119995 L 266.880005 298.75 L 266.880005 294.669983 L 285.480011 294.669983 C 296.869995 294.669983 300.390015 299.079987 300.390015 305.949982 C 300.390015 310.470001 299.390015 314.569977 293.799988 316.609985 L 300.329987 329.889984 L 306.049988 331.649994 L 306.049988 335.389984 L 292.299988 335.389984 Z M 281 300.119995 L 281 314.369995 L 287.440002 313.819977 C 289.580078 312.101593 290.766388 309.461212 290.630005 306.720001 C 290.630005 302.649994 289.559998 300.119995 285.369995 300.119995 Z"/>
    <path id="path13" fill="#ffffff" stroke="none" visibility="hidden" d="M 322.630005 322.73999 L 328.290009 322.73999 L 329.5 328.459991 C 332.092407 330.020294 335.064301 330.836792 338.089996 330.819977 C 338.530579 330.828308 338.971313 330.811615 339.410004 330.769989 C 340.981873 329.629608 341.920441 327.811859 341.940002 325.869995 C 341.940002 316.349976 322.459991 320.589996 322.459991 306.669983 C 322.459991 300.289978 328.299988 294.179993 337.980011 294.179993 C 341.820801 294.281342 345.588623 295.25235 349 297.019989 L 349 307.75 L 343.700012 307.75 L 341.769989 300.929993 C 339.668182 300.093567 337.431824 299.646301 335.170013 299.609985 C 334.802307 299.600281 334.434448 299.620361 334.070007 299.669983 C 332.4039 300.687897 331.385498 302.497559 331.380005 304.449982 C 331.380005 312.599976 350.690002 309.679993 350.690002 323.329987 C 350.690002 330.699982 344.029999 335.97998 335.059998 335.97998 C 330.665558 335.957947 326.369415 334.677429 322.679993 332.289978 Z"/>
    <path id="path14" fill="#ffffff" stroke="none" visibility="hidden" d="M 422 300.179993 L 416.720001 300.179993 L 414.290009 307.440002 L 409.179993 307.440002 L 409.179993 294.669983 L 444.670013 294.669983 L 444.670013 307.440002 L 439.670013 307.440002 L 437.329987 300.179993 L 431.609985 300.179993 L 431.609985 330.019989 L 436.179993 331.389984 L 436.179993 335.389984 L 417.450012 335.389984 L 417.450012 331.389984 L 422 330.019989 Z"/>
    <path id="path15" fill="#ffffff" stroke="none" visibility="hidden" d="M 476.609985 319.709991 L 465.929993 300.119995 L 461.369995 298.690002 L 461.369995 294.690002 L 481.070007 294.690002 L 481.070007 298.690002 L 476.440002 300.119995 L 483.160004 313.379974 L 489.920013 300.119995 L 485.359985 298.690002 L 485.359985 294.690002 L 501.420013 294.690002 L 501.420013 298.690002 L 496.859985 300.119995 L 486.130005 319.599976 L 486.130005 330.019989 L 490.700012 331.389984 L 490.700012 335.389984 L 472 335.389984 L 472 331.389984 L 476.619995 330.019989 Z"/>
    <path id="path16" fill="#ffffff" stroke="none" visibility="hidden" d="M 493.829987 250.48999 L 487.640015 266.809998 L 460.230011 266.809998 L 460.230011 235.320007 L 475.75 235.320007 L 477.76001 244.139984 L 484.649994 244.139984 L 484.649994 217.619995 L 477.76001 217.619995 L 475.75 226.119995 L 460.230011 226.119995 L 460.230011 197.630005 L 486.450012 197.630005 L 491.450012 214.540009 L 500.880005 214.540009 L 500.290009 188.340012 L 434.040009 188.340012 L 434.040009 195.130005 L 443.440002 197.87001 L 443.440002 266.919983 L 433.920013 269.539978 L 433.920013 275.849976 L 501.589996 275.849976 L 503.140015 250.48999 L 493.829987 250.48999 Z"/>
    <path id="path17" fill="#ffffff" stroke="none" visibility="hidden" d="M 151.169998 245.76001 C 151.169998 267.959991 140.570007 277.160004 118.839996 277.160004 C 98.839996 277.160004 84.379997 269.160004 84.379997 248.079987 L 84.379997 197.87001 L 74.849998 195.130005 L 74.849998 188.340012 L 110.57 188.340012 L 110.57 195.130005 L 101 197.87001 L 101 248.079987 C 101 260.699982 106.839996 266.23999 120.769997 266.23999 C 130.380005 266.23999 139.220001 260.609985 139.220001 246.919983 L 139.220001 197.87001 L 129.820007 195.130005 L 129.820007 188.340012 L 160.699997 188.340012 L 160.699997 195.130005 L 151.169998 197.87001 Z"/>
    <path id="path18" fill="#ffffff" stroke="none" visibility="hidden" d="M 417 245.76001 C 417 267.959991 406.399994 277.160004 384.670013 277.160004 C 364.670013 277.160004 350.200012 269.160004 350.200012 248.079987 L 350.200012 197.87001 L 340.679993 195.130005 L 340.679993 188.340012 L 376.399994 188.340012 L 376.399994 195.130005 L 366.869995 197.87001 L 366.869995 248.079987 C 366.869995 260.699982 372.700012 266.23999 386.640015 266.23999 C 396.25 266.23999 405.089996 260.609985 405.089996 246.919983 L 405.089996 197.87001 L 395.679993 195.130005 L 395.679993 188.340012 L 426.519989 188.340012 L 426.519989 195.130005 L 417 197.87001 Z"/>
    <path id="path19" fill="#ffffff" stroke="none" visibility="hidden" d="M 512.52002 335.279999 C 507.698547 335.279999 503.790009 331.371429 503.790009 326.549988 C 503.790009 321.728546 507.698547 317.819977 512.52002 317.819977 C 517.341431 317.819977 521.25 321.728546 521.25 326.549988 C 521.244507 331.369141 517.339172 335.274475 512.52002 335.279999 Z M 512.52002 319.629974 C 508.698181 319.629974 505.600006 322.72818 505.600006 326.549988 C 505.600006 330.371796 508.698181 333.470001 512.52002 333.470001 C 516.341797 333.470001 519.440002 330.371796 519.440002 326.549988 C 519.440002 322.72818 516.341797 319.629974 512.52002 319.629974 Z"/>
    <path id="path20" fill="#ffffff" stroke="none" visibility="hidden" d="M 511.410004 327.349976 L 511.410004 330.589996 L 509.700012 330.589996 L 509.700012 322.48999 L 513.26001 322.48999 C 515.02002 322.48999 515.969971 323.48999 515.969971 324.709991 C 516.028442 325.533783 515.558899 326.30426 514.799988 326.629974 C 515.200012 326.779999 515.799988 327.190002 515.799988 328.629974 L 515.799988 329.029999 C 515.773499 329.546356 515.813843 330.063965 515.919983 330.569977 L 514.25 330.569977 C 514.09668 329.976257 514.039246 329.361847 514.080017 328.75 L 514.080017 328.629974 C 514.080017 327.75 513.859985 327.329987 512.549988 327.329987 Z M 511.410004 325.949982 L 512.880005 325.949982 C 513.880005 325.949982 514.210022 325.579987 514.210022 324.949982 C 514.210022 324.319977 513.780029 323.949982 512.919983 323.949982 L 511.410004 323.949982 Z"/>
</svg>
